<svg width="769" height="498" viewBox="0 0 769 498" fill="none" xmlns="http://www.w3.org/2000/svg">
<path d="M308.8 496.693L341.02 431.414H411.903L447.345 496.693H308.8Z" fill="black" stroke="black" stroke-width="1.40706"/>
<g filter="url(#filter0_d)">
<rect x="6" width="757" height="431.414" rx="19.6989" fill="white"/>
<rect x="10.9247" y="4.92472" width="747.151" height="421.564" rx="14.7742" stroke="black" stroke-width="9.84944" stroke-linecap="round" stroke-linejoin="round"/>
</g>
<g filter="url(#filter1_d)">
<rect x="15.9981" y="9.93387" width="737.004" height="411.546" rx="9.84944" fill="#FFF9F9"/>
<rect x="17.4052" y="11.3409" width="734.19" height="408.732" rx="8.44238" stroke="#B0AEAE" stroke-width="2.81413" stroke-linecap="round" stroke-linejoin="round"/>
</g>
<path d="M16.0081 22.706L752.996 23.1824L752.986 38.4927L15.9981 38.0163L16.0081 22.706Z" fill="#B0AEAE"/>
<path d="M82.4788 23.269L73.0873 36.9913C72.4997 37.8499 73.1145 39.0156 74.1549 39.0156H159.941C160.965 39.0156 161.583 37.8823 161.029 37.0214L152.19 23.2991C151.952 22.9294 151.542 22.706 151.102 22.706H83.5464C83.1194 22.706 82.72 22.9167 82.4788 23.269Z" fill="#FDF5F5"/>
<line y1="-0.646841" x2="8.92751" y2="-0.646841" transform="matrix(0.657339 0.753595 -0.757774 0.652517 144.997 27.4118)" stroke="#A29292" stroke-width="1.29368"/>
<line y1="-0.646841" x2="8.92751" y2="-0.646841" transform="matrix(0.657339 -0.753595 -0.757774 -0.652517 144.545 33.691)" stroke="#A29292" stroke-width="1.29368"/>
<path d="M95.8922 30.8831H94.1583L93.7689 31.9633H93.206L94.7865 27.8245H95.264L96.8474 31.9633H96.2874L95.8922 30.8831ZM94.3232 30.434H95.7302L95.0253 28.4982L94.3232 30.434ZM97.197 30.3999C97.197 29.9205 97.3078 29.5396 97.5296 29.2572C97.7513 28.9729 98.045 28.8308 98.4108 28.8308C98.786 28.8308 99.0788 28.9635 99.2891 29.2288L99.3147 28.8877H99.7951V31.8894C99.7951 32.2874 99.6766 32.601 99.4398 32.8303C99.2048 33.0596 98.8883 33.1742 98.4904 33.1742C98.2686 33.1742 98.0516 33.1269 97.8394 33.0321C97.6272 32.9374 97.4651 32.8076 97.3533 32.6427L97.6262 32.3272C97.8517 32.6057 98.1275 32.745 98.4534 32.745C98.7092 32.745 98.9082 32.673 99.0503 32.529C99.1944 32.385 99.2664 32.1822 99.2664 31.9207V31.6563C99.056 31.8989 98.7689 32.0202 98.4051 32.0202C98.045 32.0202 97.7532 31.8752 97.5296 31.5853C97.3078 31.2953 97.197 30.9002 97.197 30.3999ZM97.7257 30.4596C97.7257 30.8064 97.7968 31.0793 97.9389 31.2783C98.081 31.4753 98.28 31.5739 98.5358 31.5739C98.8675 31.5739 99.111 31.4232 99.2664 31.1219V29.7177C99.1053 29.424 98.8637 29.2771 98.5415 29.2771C98.2857 29.2771 98.0858 29.3766 97.9417 29.5756C97.7977 29.7745 97.7257 30.0692 97.7257 30.4596ZM100.452 30.3971C100.452 30.0958 100.51 29.8248 100.628 29.5841C100.747 29.3434 100.912 29.1577 101.123 29.0269C101.335 28.8962 101.576 28.8308 101.847 28.8308C102.266 28.8308 102.604 28.9758 102.862 29.2657C103.122 29.5557 103.252 29.9413 103.252 30.4226V30.4596C103.252 30.759 103.194 31.0281 103.078 31.2669C102.965 31.5038 102.801 31.6885 102.586 31.8212C102.374 31.9538 102.13 32.0202 101.853 32.0202C101.436 32.0202 101.098 31.8752 100.838 31.5853C100.581 31.2953 100.452 30.9116 100.452 30.434V30.3971ZM100.98 30.4596C100.98 30.8007 101.059 31.0745 101.216 31.2811C101.376 31.4877 101.588 31.5909 101.853 31.5909C102.12 31.5909 102.333 31.4867 102.49 31.2783C102.647 31.0679 102.726 30.7742 102.726 30.3971C102.726 30.0597 102.645 29.7869 102.484 29.5784C102.325 29.3681 102.113 29.2629 101.847 29.2629C101.588 29.2629 101.378 29.3662 101.219 29.5727C101.06 29.7793 100.98 30.0749 100.98 30.4596ZM105.398 29.3595C105.318 29.3463 105.232 29.3396 105.139 29.3396C104.794 29.3396 104.56 29.4865 104.437 29.7802V31.9633H103.911V28.8877H104.423L104.431 29.243C104.604 28.9682 104.848 28.8308 105.165 28.8308C105.267 28.8308 105.345 28.8441 105.398 28.8706V29.3595ZM107.669 31.9633C107.639 31.9027 107.614 31.7947 107.595 31.6393C107.351 31.8932 107.059 32.0202 106.72 32.0202C106.416 32.0202 106.167 31.9349 105.972 31.7643C105.779 31.5919 105.682 31.374 105.682 31.1105C105.682 30.7903 105.803 30.542 106.046 30.3658C106.29 30.1877 106.633 30.0986 107.075 30.0986H107.587V29.857C107.587 29.6732 107.532 29.5272 107.422 29.4192C107.312 29.3093 107.15 29.2544 106.936 29.2544C106.748 29.2544 106.591 29.3017 106.464 29.3965C106.337 29.4912 106.273 29.6059 106.273 29.7404H105.745C105.745 29.5869 105.799 29.4391 105.907 29.297C106.017 29.153 106.164 29.0393 106.35 28.9559C106.538 28.8725 106.743 28.8308 106.967 28.8308C107.321 28.8308 107.599 28.9199 107.8 29.098C108.001 29.2743 108.105 29.5178 108.112 29.8286V31.2441C108.112 31.5265 108.148 31.7511 108.22 31.9178V31.9633H107.669ZM106.796 31.5625C106.961 31.5625 107.118 31.5199 107.265 31.4346C107.413 31.3493 107.52 31.2385 107.587 31.102V30.471H107.174C106.53 30.471 106.208 30.6595 106.208 31.0366C106.208 31.2015 106.263 31.3304 106.373 31.4232C106.483 31.5161 106.624 31.5625 106.796 31.5625ZM108.948 31.6876C108.948 31.5966 108.975 31.5208 109.028 31.4602C109.083 31.3995 109.164 31.3692 109.272 31.3692C109.38 31.3692 109.462 31.3995 109.517 31.4602C109.574 31.5208 109.602 31.5966 109.602 31.6876C109.602 31.7748 109.574 31.8477 109.517 31.9065C109.462 31.9652 109.38 31.9946 109.272 31.9946C109.164 31.9946 109.083 31.9652 109.028 31.9065C108.975 31.8477 108.948 31.7748 108.948 31.6876ZM111.043 31.9633H110.517V28.8877H111.043V31.9633ZM110.475 28.0718C110.475 27.9866 110.5 27.9146 110.551 27.8558C110.604 27.7971 110.682 27.7677 110.784 27.7677C110.887 27.7677 110.964 27.7971 111.018 27.8558C111.071 27.9146 111.097 27.9866 111.097 28.0718C111.097 28.1571 111.071 28.2282 111.018 28.285C110.964 28.3419 110.887 28.3703 110.784 28.3703C110.682 28.3703 110.604 28.3419 110.551 28.285C110.5 28.2282 110.475 28.1571 110.475 28.0718ZM111.748 30.3971C111.748 30.0958 111.807 29.8248 111.924 29.5841C112.044 29.3434 112.209 29.1577 112.419 29.0269C112.631 28.8962 112.873 28.8308 113.144 28.8308C113.563 28.8308 113.901 28.9758 114.159 29.2657C114.418 29.5557 114.548 29.9413 114.548 30.4226V30.4596C114.548 30.759 114.49 31.0281 114.375 31.2669C114.261 31.5038 114.097 31.6885 113.883 31.8212C113.671 31.9538 113.426 32.0202 113.149 32.0202C112.733 32.0202 112.394 31.8752 112.135 31.5853C111.877 31.2953 111.748 30.9116 111.748 30.434V30.3971ZM112.277 30.4596C112.277 30.8007 112.355 31.0745 112.513 31.2811C112.672 31.4877 112.884 31.5909 113.149 31.5909C113.417 31.5909 113.629 31.4867 113.786 31.2783C113.943 31.0679 114.022 30.7742 114.022 30.3971C114.022 30.0597 113.942 29.7869 113.781 29.5784C113.621 29.3681 113.409 29.2629 113.144 29.2629C112.884 29.2629 112.675 29.3662 112.516 29.5727C112.356 29.7793 112.277 30.0749 112.277 30.4596ZM119.073 30.0503H117.28V31.517H119.363V31.9633H116.734V27.8245H119.335V28.2737H117.28V29.604H119.073V30.0503ZM121.055 30.4198H119.667V29.9906H121.055V30.4198ZM122.2 31.517H124.162V31.9633H121.652V27.8245H122.2V31.517ZM125.978 32.0202C125.561 32.0202 125.222 31.8837 124.96 31.6108C124.699 31.3361 124.568 30.9694 124.568 30.5108V30.4141C124.568 30.109 124.626 29.8371 124.741 29.5983C124.859 29.3576 125.022 29.17 125.23 29.0355C125.441 28.899 125.668 28.8308 125.913 28.8308C126.312 28.8308 126.623 28.9625 126.845 29.2259C127.067 29.4893 127.178 29.8665 127.178 30.3573V30.5761H125.094C125.101 30.8794 125.19 31.1248 125.358 31.3124C125.529 31.4981 125.745 31.5909 126.006 31.5909C126.192 31.5909 126.349 31.553 126.478 31.4772C126.607 31.4014 126.72 31.301 126.816 31.1759L127.138 31.4261C126.88 31.8221 126.493 32.0202 125.978 32.0202ZM125.913 29.2629C125.7 29.2629 125.522 29.3406 125.378 29.496C125.234 29.6495 125.145 29.8655 125.111 30.1441H126.652V30.1043C126.636 29.8371 126.564 29.6305 126.436 29.4846C126.307 29.3368 126.132 29.2629 125.913 29.2629ZM129.687 31.9633C129.657 31.9027 129.633 31.7947 129.614 31.6393C129.369 31.8932 129.077 32.0202 128.738 32.0202C128.435 32.0202 128.186 31.9349 127.99 31.7643C127.797 31.5919 127.701 31.374 127.701 31.1105C127.701 30.7903 127.822 30.542 128.064 30.3658C128.309 30.1877 128.652 30.0986 129.093 30.0986H129.605V29.857C129.605 29.6732 129.55 29.5272 129.44 29.4192C129.33 29.3093 129.168 29.2544 128.954 29.2544C128.766 29.2544 128.609 29.3017 128.482 29.3965C128.355 29.4912 128.292 29.6059 128.292 29.7404H127.763C127.763 29.5869 127.817 29.4391 127.925 29.297C128.035 29.153 128.183 29.0393 128.369 28.9559C128.556 28.8725 128.762 28.8308 128.985 28.8308C129.34 28.8308 129.617 28.9199 129.818 29.098C130.019 29.2743 130.123 29.5178 130.131 29.8286V31.2441C130.131 31.5265 130.167 31.7511 130.239 31.9178V31.9633H129.687ZM128.815 31.5625C128.98 31.5625 129.136 31.5199 129.284 31.4346C129.432 31.3493 129.539 31.2385 129.605 31.102V30.471H129.193C128.549 30.471 128.226 30.6595 128.226 31.0366C128.226 31.2015 128.281 31.3304 128.391 31.4232C128.501 31.5161 128.642 31.5625 128.815 31.5625ZM132.442 29.3595C132.362 29.3463 132.276 29.3396 132.183 29.3396C131.838 29.3396 131.604 29.4865 131.481 29.7802V31.9633H130.955V28.8877H131.467L131.475 29.243C131.648 28.9682 131.892 28.8308 132.209 28.8308C132.311 28.8308 132.389 28.8441 132.442 28.8706V29.3595ZM133.425 28.8877L133.443 29.2743C133.678 28.9786 133.984 28.8308 134.364 28.8308C135.014 28.8308 135.341 29.1975 135.347 29.9309V31.9633H134.821V29.928C134.819 29.7063 134.768 29.5424 134.668 29.4363C134.569 29.3302 134.415 29.2771 134.204 29.2771C134.034 29.2771 133.884 29.3226 133.755 29.4135C133.626 29.5045 133.526 29.6239 133.454 29.7717V31.9633H132.928V28.8877H133.425ZM137.416 32.0202C137 32.0202 136.66 31.8837 136.399 31.6108C136.137 31.3361 136.007 30.9694 136.007 30.5108V30.4141C136.007 30.109 136.064 29.8371 136.18 29.5983C136.297 29.3576 136.46 29.17 136.669 29.0355C136.879 28.899 137.107 28.8308 137.351 28.8308C137.751 28.8308 138.062 28.9625 138.283 29.2259C138.505 29.4893 138.616 29.8665 138.616 30.3573V30.5761H136.532C136.54 30.8794 136.628 31.1248 136.797 31.3124C136.967 31.4981 137.183 31.5909 137.445 31.5909C137.631 31.5909 137.788 31.553 137.917 31.4772C138.046 31.4014 138.158 31.301 138.255 31.1759L138.576 31.4261C138.318 31.8221 137.932 32.0202 137.416 32.0202ZM137.351 29.2629C137.139 29.2629 136.961 29.3406 136.817 29.496C136.673 29.6495 136.584 29.8655 136.549 30.1441H138.09V30.1043C138.075 29.8371 138.003 29.6305 137.874 29.4846C137.745 29.3368 137.571 29.2629 137.351 29.2629ZM140.714 29.3595C140.634 29.3463 140.548 29.3396 140.455 29.3396C140.11 29.3396 139.876 29.4865 139.753 29.7802V31.9633H139.227V28.8877H139.739L139.747 29.243C139.92 28.9682 140.164 28.8308 140.481 28.8308C140.583 28.8308 140.661 28.8441 140.714 28.8706V29.3595Z" fill="black"/>
<path d="M16.0036 15.55C16.0061 11.6645 19.158 8.51676 23.0435 8.51927L745.961 8.98659C749.846 8.9891 752.994 12.141 752.991 16.0265L752.991 17.2661C752.988 21.1516 749.836 24.2994 745.951 24.2969L23.0335 23.8296C19.148 23.827 16.0002 20.6752 16.0028 16.7897L16.0036 15.55Z" fill="#B0AEAE"/>
<path d="M297.851 17.9923H294.331L293.748 19.6765H291.887L295.065 10.8247H297.13L300.308 19.6765H298.434L297.851 17.9923ZM297.37 16.5739L296.091 12.8762L294.812 16.5739H297.37ZM304.244 12.5469C304.768 12.5469 305.228 12.6525 305.624 12.8635C306.021 13.0661 306.334 13.3321 306.562 13.6613V12.6609H308.347V19.7272C308.347 20.3772 308.216 20.9555 307.955 21.4621C307.693 21.9771 307.3 22.3823 306.777 22.6778C306.253 22.9817 305.62 23.1337 304.877 23.1337C303.881 23.1337 303.062 22.9015 302.421 22.4372C301.787 21.9728 301.429 21.3397 301.344 20.5376H303.104C303.197 20.8584 303.396 21.1117 303.7 21.2975C304.012 21.4916 304.388 21.5887 304.827 21.5887C305.342 21.5887 305.76 21.4325 306.08 21.1202C306.401 20.8162 306.562 20.3519 306.562 19.7272V18.6381C306.334 18.9674 306.017 19.2417 305.612 19.4612C305.215 19.6807 304.759 19.7905 304.244 19.7905C303.653 19.7905 303.113 19.6385 302.623 19.3346C302.134 19.0307 301.745 18.6043 301.458 18.0556C301.18 17.4984 301.04 16.861 301.04 16.1434C301.04 15.4342 301.18 14.8053 301.458 14.2565C301.745 13.7078 302.129 13.2856 302.611 12.9901C303.1 12.6947 303.645 12.5469 304.244 12.5469ZM306.562 16.1687C306.562 15.7381 306.477 15.3709 306.308 15.067C306.139 14.7546 305.912 14.5182 305.624 14.3578C305.337 14.189 305.029 14.1045 304.7 14.1045C304.371 14.1045 304.067 14.1847 303.788 14.3452C303.51 14.5056 303.282 14.7419 303.104 15.0543C302.936 15.3582 302.851 15.7213 302.851 16.1434C302.851 16.5655 302.936 16.937 303.104 17.2578C303.282 17.5701 303.51 17.8107 303.788 17.9796C304.075 18.1484 304.379 18.2329 304.7 18.2329C305.029 18.2329 305.337 18.1527 305.624 17.9923C305.912 17.8234 306.139 17.587 306.308 17.2831C306.477 16.9707 306.562 16.5993 306.562 16.1687ZM313.194 19.7905C312.519 19.7905 311.911 19.6427 311.37 19.3473C310.83 19.0433 310.404 18.617 310.091 18.0682C309.787 17.5195 309.635 16.8863 309.635 16.1687C309.635 15.4511 309.792 14.8179 310.104 14.2692C310.425 13.7204 310.86 13.2983 311.408 13.0028C311.957 12.6989 312.569 12.5469 313.245 12.5469C313.92 12.5469 314.532 12.6989 315.081 13.0028C315.63 13.2983 316.06 13.7204 316.372 14.2692C316.693 14.8179 316.854 15.4511 316.854 16.1687C316.854 16.8863 316.689 17.5195 316.36 18.0682C316.039 18.617 315.6 19.0433 315.043 19.3473C314.494 19.6427 313.878 19.7905 313.194 19.7905ZM313.194 18.2455C313.515 18.2455 313.814 18.1695 314.093 18.0176C314.38 17.8572 314.608 17.6208 314.777 17.3084C314.946 16.9961 315.03 16.6162 315.03 16.1687C315.03 15.5018 314.853 14.991 314.498 14.6364C314.152 14.2734 313.726 14.0919 313.219 14.0919C312.713 14.0919 312.286 14.2734 311.94 14.6364C311.603 14.991 311.434 15.5018 311.434 16.1687C311.434 16.8357 311.598 17.3506 311.928 17.7137C312.265 18.0682 312.687 18.2455 313.194 18.2455ZM319.927 13.75C320.155 13.3785 320.451 13.0872 320.814 12.8762C321.185 12.6651 321.607 12.5596 322.08 12.5596V14.4211H321.611C321.054 14.4211 320.632 14.552 320.345 14.8137C320.066 15.0754 319.927 15.5313 319.927 16.1814V19.6765H318.154V12.6609H319.927V13.75ZM322.818 16.1434C322.818 15.4342 322.957 14.8053 323.236 14.2565C323.523 13.7078 323.907 13.2856 324.388 12.9901C324.878 12.6947 325.423 12.5469 326.022 12.5469C326.545 12.5469 327.001 12.6525 327.39 12.8635C327.786 13.0746 328.103 13.3405 328.339 13.6613V12.6609H330.125V19.6765H328.339V18.6508C328.112 18.98 327.795 19.2544 327.39 19.4739C326.993 19.685 326.533 19.7905 326.009 19.7905C325.418 19.7905 324.878 19.6385 324.388 19.3346C323.907 19.0307 323.523 18.6043 323.236 18.0556C322.957 17.4984 322.818 16.861 322.818 16.1434ZM328.339 16.1687C328.339 15.7381 328.255 15.3709 328.086 15.067C327.917 14.7546 327.689 14.5182 327.402 14.3578C327.115 14.189 326.807 14.1045 326.478 14.1045C326.149 14.1045 325.845 14.1847 325.566 14.3452C325.288 14.5056 325.06 14.7419 324.882 15.0543C324.713 15.3582 324.629 15.7213 324.629 16.1434C324.629 16.5655 324.713 16.937 324.882 17.2578C325.06 17.5701 325.288 17.8107 325.566 17.9796C325.853 18.1484 326.157 18.2329 326.478 18.2329C326.807 18.2329 327.115 18.1527 327.402 17.9923C327.689 17.8234 327.917 17.587 328.086 17.2831C328.255 16.9707 328.339 16.5993 328.339 16.1687ZM332.642 19.7652C332.321 19.7652 332.055 19.6681 331.844 19.4739C331.641 19.2713 331.54 19.0222 331.54 18.7267C331.54 18.4313 331.641 18.1864 331.844 17.9923C332.055 17.7896 332.321 17.6883 332.642 17.6883C332.954 17.6883 333.212 17.7896 333.414 17.9923C333.617 18.1864 333.718 18.4313 333.718 18.7267C333.718 19.0222 333.617 19.2713 333.414 19.4739C333.212 19.6681 332.954 19.7652 332.642 19.7652ZM336.045 11.8251C335.733 11.8251 335.471 11.728 335.26 11.5338C335.057 11.3312 334.956 11.0822 334.956 10.7867C334.956 10.4912 335.057 10.2464 335.26 10.0522C335.471 9.84958 335.733 9.74828 336.045 9.74828C336.358 9.74828 336.615 9.84958 336.818 10.0522C337.029 10.2464 337.134 10.4912 337.134 10.7867C337.134 11.0822 337.029 11.3312 336.818 11.5338C336.615 11.728 336.358 11.8251 336.045 11.8251ZM336.919 12.6609V19.6765H335.146V12.6609H336.919ZM341.786 19.7905C341.111 19.7905 340.503 19.6427 339.962 19.3473C339.422 19.0433 338.996 18.617 338.683 18.0682C338.379 17.5195 338.227 16.8863 338.227 16.1687C338.227 15.4511 338.384 14.8179 338.696 14.2692C339.017 13.7204 339.452 13.2983 340 13.0028C340.549 12.6989 341.161 12.5469 341.837 12.5469C342.512 12.5469 343.124 12.6989 343.673 13.0028C344.222 13.2983 344.652 13.7204 344.964 14.2692C345.285 14.8179 345.446 15.4511 345.446 16.1687C345.446 16.8863 345.281 17.5195 344.952 18.0682C344.631 18.617 344.192 19.0433 343.635 19.3473C343.086 19.6427 342.47 19.7905 341.786 19.7905ZM341.786 18.2455C342.107 18.2455 342.406 18.1695 342.685 18.0176C342.972 17.8572 343.2 17.6208 343.369 17.3084C343.538 16.9961 343.622 16.6162 343.622 16.1687C343.622 15.5018 343.445 14.991 343.09 14.6364C342.744 14.2734 342.318 14.0919 341.811 14.0919C341.305 14.0919 340.878 14.2734 340.532 14.6364C340.195 14.991 340.026 15.5018 340.026 16.1687C340.026 16.8357 340.19 17.3506 340.52 17.7137C340.857 18.0682 341.279 18.2455 341.786 18.2455ZM351.537 12.2683V14.4845H354.512V15.8901H351.537V18.2329H354.892V19.6765H349.764V10.8247H354.892V12.2683H351.537ZM361.898 14.4085V15.9028H356.529V14.4085H361.898ZM365.659 18.2709H368.572V19.6765H363.887V10.8373H365.659V18.2709ZM376.221 16.0167C376.221 16.27 376.204 16.498 376.17 16.7006H371.041C371.083 17.2071 371.261 17.6039 371.573 17.891C371.885 18.178 372.27 18.3215 372.725 18.3215C373.384 18.3215 373.853 18.0387 374.131 17.4731H376.043C375.841 18.1484 375.452 18.7056 374.878 19.1446C374.304 19.5752 373.599 19.7905 372.763 19.7905C372.088 19.7905 371.48 19.6427 370.94 19.3473C370.408 19.0433 369.99 18.617 369.686 18.0682C369.391 17.5195 369.243 16.8863 369.243 16.1687C369.243 15.4427 369.391 14.8053 369.686 14.2565C369.982 13.7078 370.395 13.2856 370.927 12.9901C371.459 12.6947 372.071 12.5469 372.763 12.5469C373.43 12.5469 374.026 12.6904 374.549 12.9775C375.081 13.2645 375.49 13.674 375.777 14.2059C376.073 14.7293 376.221 15.3329 376.221 16.0167ZM374.384 15.5102C374.376 15.0543 374.211 14.6913 373.891 14.4211C373.57 14.1425 373.177 14.0032 372.713 14.0032C372.274 14.0032 371.902 14.1383 371.598 14.4085C371.303 14.6702 371.121 15.0374 371.054 15.5102H374.384ZM377.059 16.1434C377.059 15.4342 377.198 14.8053 377.477 14.2565C377.764 13.7078 378.148 13.2856 378.629 12.9901C379.119 12.6947 379.663 12.5469 380.263 12.5469C380.786 12.5469 381.242 12.6525 381.63 12.8635C382.027 13.0746 382.344 13.3405 382.58 13.6613V12.6609H384.366V19.6765H382.58V18.6508C382.352 18.98 382.036 19.2544 381.63 19.4739C381.234 19.685 380.773 19.7905 380.25 19.7905C379.659 19.7905 379.119 19.6385 378.629 19.3346C378.148 19.0307 377.764 18.6043 377.477 18.0556C377.198 17.4984 377.059 16.861 377.059 16.1434ZM382.58 16.1687C382.58 15.7381 382.496 15.3709 382.327 15.067C382.158 14.7546 381.93 14.5182 381.643 14.3578C381.356 14.189 381.048 14.1045 380.719 14.1045C380.389 14.1045 380.085 14.1847 379.807 14.3452C379.528 14.5056 379.3 14.7419 379.123 15.0543C378.954 15.3582 378.87 15.7213 378.87 16.1434C378.87 16.5655 378.954 16.937 379.123 17.2578C379.3 17.5701 379.528 17.8107 379.807 17.9796C380.094 18.1484 380.398 18.2329 380.719 18.2329C381.048 18.2329 381.356 18.1527 381.643 17.9923C381.93 17.8234 382.158 17.587 382.327 17.2831C382.496 16.9707 382.58 16.5993 382.58 16.1687ZM387.87 13.75C388.098 13.3785 388.394 13.0872 388.757 12.8762C389.128 12.6651 389.55 12.5596 390.023 12.5596V14.4211H389.554C388.997 14.4211 388.575 14.552 388.288 14.8137C388.009 15.0754 387.87 15.5313 387.87 16.1814V19.6765H386.097V12.6609H387.87V13.75ZM395.105 12.5596C395.941 12.5596 396.616 12.8255 397.131 13.3574C397.646 13.8808 397.903 14.6153 397.903 15.5609V19.6765H396.131V15.8015C396.131 15.2443 395.991 14.8179 395.713 14.5224C395.434 14.2185 395.054 14.0666 394.573 14.0666C394.083 14.0666 393.695 14.2185 393.408 14.5224C393.129 14.8179 392.99 15.2443 392.99 15.8015V19.6765H391.217V12.6609H392.99V13.5347C393.226 13.2308 393.526 12.9944 393.889 12.8255C394.261 12.6482 394.666 12.5596 395.105 12.5596ZM406.111 16.0167C406.111 16.27 406.094 16.498 406.06 16.7006H400.932C400.974 17.2071 401.151 17.6039 401.464 17.891C401.776 18.178 402.16 18.3215 402.616 18.3215C403.274 18.3215 403.743 18.0387 404.022 17.4731H405.934C405.731 18.1484 405.343 18.7056 404.769 19.1446C404.195 19.5752 403.49 19.7905 402.654 19.7905C401.979 19.7905 401.371 19.6427 400.83 19.3473C400.299 19.0433 399.881 18.617 399.577 18.0682C399.281 17.5195 399.133 16.8863 399.133 16.1687C399.133 15.4427 399.281 14.8053 399.577 14.2565C399.872 13.7078 400.286 13.2856 400.818 12.9901C401.35 12.6947 401.962 12.5469 402.654 12.5469C403.321 12.5469 403.916 12.6904 404.44 12.9775C404.971 13.2645 405.381 13.674 405.668 14.2059C405.963 14.7293 406.111 15.3329 406.111 16.0167ZM404.275 15.5102C404.266 15.0543 404.102 14.6913 403.781 14.4211C403.46 14.1425 403.068 14.0032 402.603 14.0032C402.164 14.0032 401.793 14.1383 401.489 14.4085C401.193 14.6702 401.012 15.0374 400.944 15.5102H404.275ZM409.178 13.75C409.406 13.3785 409.701 13.0872 410.065 12.8762C410.436 12.6651 410.858 12.5596 411.331 12.5596V14.4211H410.862C410.305 14.4211 409.883 14.552 409.596 14.8137C409.317 15.0754 409.178 15.5313 409.178 16.1814V19.6765H407.405V12.6609H409.178V13.75ZM420.937 14.4085V15.9028H415.568V14.4085H420.937ZM425.512 15.2443C425.512 14.3747 425.707 13.598 426.095 12.9142C426.492 12.2219 427.028 11.6858 427.703 11.3059C428.387 10.9175 429.151 10.7234 429.995 10.7234C430.983 10.7234 431.848 10.9766 432.591 11.4832C433.334 11.9897 433.853 12.6904 434.149 13.5853H432.11C431.907 13.1632 431.62 12.8466 431.249 12.6356C430.886 12.4245 430.464 12.319 429.983 12.319C429.468 12.319 429.008 12.4414 428.602 12.6862C428.205 12.9226 427.893 13.2603 427.665 13.6993C427.446 14.1383 427.336 14.6533 427.336 15.2443C427.336 15.8268 427.446 16.3418 427.665 16.7892C427.893 17.2282 428.205 17.5701 428.602 17.815C429.008 18.0514 429.468 18.1695 429.983 18.1695C430.464 18.1695 430.886 18.064 431.249 17.853C431.62 17.6335 431.907 17.3126 432.11 16.8905H434.149C433.853 17.7939 433.334 18.4988 432.591 19.0053C431.857 19.5034 430.991 19.7525 429.995 19.7525C429.151 19.7525 428.387 19.5625 427.703 19.1826C427.028 18.7943 426.492 18.2582 426.095 17.5744C425.707 16.8905 425.512 16.1138 425.512 15.2443ZM439.614 12.5596C440.146 12.5596 440.619 12.6778 441.033 12.9142C441.446 13.1421 441.767 13.484 441.995 13.9399C442.231 14.3874 442.35 14.9277 442.35 15.5609V19.6765H440.577V15.8015C440.577 15.2443 440.437 14.8179 440.159 14.5224C439.88 14.2185 439.5 14.0666 439.019 14.0666C438.529 14.0666 438.141 14.2185 437.854 14.5224C437.575 14.8179 437.436 15.2443 437.436 15.8015V19.6765H435.663V10.3055H437.436V13.5347C437.664 13.2308 437.968 12.9944 438.348 12.8255C438.728 12.6482 439.15 12.5596 439.614 12.5596ZM445.808 13.75C446.036 13.3785 446.332 13.0872 446.695 12.8762C447.066 12.6651 447.488 12.5596 447.961 12.5596V14.4211H447.493C446.935 14.4211 446.513 14.552 446.226 14.8137C445.948 15.0754 445.808 15.5313 445.808 16.1814V19.6765H444.036V12.6609H445.808V13.75ZM452.271 19.7905C451.595 19.7905 450.987 19.6427 450.447 19.3473C449.907 19.0433 449.48 18.617 449.168 18.0682C448.864 17.5195 448.712 16.8863 448.712 16.1687C448.712 15.4511 448.868 14.8179 449.181 14.2692C449.501 13.7204 449.936 13.2983 450.485 13.0028C451.034 12.6989 451.646 12.5469 452.321 12.5469C452.997 12.5469 453.609 12.6989 454.157 13.0028C454.706 13.2983 455.137 13.7204 455.449 14.2692C455.77 14.8179 455.93 15.4511 455.93 16.1687C455.93 16.8863 455.766 17.5195 455.436 18.0682C455.116 18.617 454.677 19.0433 454.119 19.3473C453.571 19.6427 452.954 19.7905 452.271 19.7905ZM452.271 18.2455C452.591 18.2455 452.891 18.1695 453.17 18.0176C453.457 17.8572 453.685 17.6208 453.854 17.3084C454.022 16.9961 454.107 16.6162 454.107 16.1687C454.107 15.5018 453.93 14.991 453.575 14.6364C453.229 14.2734 452.802 14.0919 452.296 14.0919C451.789 14.0919 451.363 14.2734 451.017 14.6364C450.679 14.991 450.51 15.5018 450.51 16.1687C450.51 16.8357 450.675 17.3506 451.004 17.7137C451.342 18.0682 451.764 18.2455 452.271 18.2455ZM465.943 12.5596C466.805 12.5596 467.497 12.8255 468.02 13.3574C468.552 13.8808 468.818 14.6153 468.818 15.5609V19.6765H467.045V15.8015C467.045 15.2527 466.906 14.8348 466.627 14.5478C466.349 14.2523 465.969 14.1045 465.488 14.1045C465.006 14.1045 464.622 14.2523 464.335 14.5478C464.057 14.8348 463.917 15.2527 463.917 15.8015V19.6765H462.144V15.8015C462.144 15.2527 462.005 14.8348 461.726 14.5478C461.448 14.2523 461.068 14.1045 460.587 14.1045C460.097 14.1045 459.709 14.2523 459.422 14.5478C459.143 14.8348 459.004 15.2527 459.004 15.8015V19.6765H457.231V12.6609H459.004V13.5094C459.232 13.2139 459.523 12.9817 459.878 12.8129C460.241 12.644 460.637 12.5596 461.068 12.5596C461.617 12.5596 462.106 12.6778 462.537 12.9142C462.967 13.1421 463.301 13.4714 463.537 13.9019C463.765 13.4967 464.095 13.1717 464.525 12.9268C464.964 12.682 465.437 12.5596 465.943 12.5596ZM477.022 16.0167C477.022 16.27 477.005 16.498 476.971 16.7006H471.843C471.885 17.2071 472.062 17.6039 472.375 17.891C472.687 18.178 473.071 18.3215 473.527 18.3215C474.185 18.3215 474.654 18.0387 474.933 17.4731H476.845C476.642 18.1484 476.254 18.7056 475.68 19.1446C475.106 19.5752 474.401 19.7905 473.565 19.7905C472.89 19.7905 472.282 19.6427 471.741 19.3473C471.21 19.0433 470.792 18.617 470.488 18.0682C470.192 17.5195 470.044 16.8863 470.044 16.1687C470.044 15.4427 470.192 14.8053 470.488 14.2565C470.783 13.7078 471.197 13.2856 471.729 12.9901C472.261 12.6947 472.873 12.5469 473.565 12.5469C474.232 12.5469 474.827 12.6904 475.351 12.9775C475.882 13.2645 476.292 13.674 476.579 14.2059C476.874 14.7293 477.022 15.3329 477.022 16.0167ZM475.186 15.5102C475.177 15.0543 475.013 14.6913 474.692 14.4211C474.371 14.1425 473.979 14.0032 473.514 14.0032C473.075 14.0032 472.704 14.1383 472.4 14.4085C472.104 14.6702 471.923 15.0374 471.855 15.5102H475.186Z" fill="black"/>
<ellipse cx="662.305" cy="16.3199" rx="7.85566" ry="6.38606" fill="#757373"/>
<line x1="657.306" y1="16.3259" x2="667.304" y2="16.3259" stroke="black" stroke-width="1.40706"/>
<ellipse cx="689.442" cy="16.3199" rx="7.85566" ry="6.38606" fill="#757373"/>
<rect x="684.795" y="13.1239" width="9.29458" height="6.39209" stroke="black" stroke-width="0.703532"/>
<ellipse cx="716.58" cy="16.3199" rx="7.85566" ry="6.38606" fill="#840808"/>
<line y1="-0.639574" x2="8.82722" y2="-0.639574" transform="matrix(-0.657339 0.753595 0.757774 0.652517 720.24 13.2156)" stroke="black" stroke-width="1.27915"/>
<line y1="-0.639574" x2="8.82722" y2="-0.639574" transform="matrix(-0.657339 -0.753595 0.757774 -0.652517 720.686 19.4243)" stroke="black" stroke-width="1.27915"/>
<line x1="166.237" y1="25.5442" x2="166.237" y2="34.059" stroke="black" stroke-width="0.534684"/>
<line x1="161.685" y1="29.5342" x2="170.255" y2="29.5342" stroke="black" stroke-width="0.534684"/>
<ellipse cx="28.2407" cy="29.8016" rx="6.52938" ry="5.67649" fill="#C4C4C4"/>
<path d="M24.3788 29.6126C24.2744 29.717 24.2744 29.8863 24.3788 29.9907L26.0801 31.692C26.1845 31.7964 26.3538 31.7964 26.4582 31.692C26.5626 31.5876 26.5626 31.4183 26.4582 31.3139L24.9459 29.8016L26.4582 28.2893C26.5626 28.1849 26.5626 28.0156 26.4582 27.9112C26.3538 27.8068 26.1845 27.8068 26.0801 27.9112L24.3788 29.6126ZM30.281 29.5343H24.5678V30.069H30.281V29.5343Z" fill="black"/>
<ellipse cx="46.8087" cy="29.8016" rx="6.52938" ry="5.67649" fill="#C4C4C4"/>
<path d="M50.4665 29.9907C50.5709 29.8863 50.5709 29.717 50.4665 29.6126L48.7651 27.9112C48.6607 27.8068 48.4915 27.8068 48.3871 27.9112C48.2826 28.0156 48.2826 28.1849 48.3871 28.2893L49.8994 29.8016L48.3871 31.3139C48.2826 31.4183 48.2826 31.5876 48.3871 31.692C48.4915 31.7964 48.6607 31.7964 48.7651 31.692L50.4665 29.9907ZM44.5642 30.069H50.2774V29.5343H44.5642V30.069Z" fill="black"/>
<path fill-rule="evenodd" clip-rule="evenodd" d="M60.3869 30.5985C60.6947 31.4911 61.6911 32.534 64.0761 33.211L63.6918 34.5646C61.0777 33.8225 59.5746 32.5593 59.0567 31.0571C58.538 29.553 59.0888 28.0443 60.0725 27.0155C61.0551 25.9878 62.5537 25.3432 64.1041 25.6111C65.4056 25.836 66.6243 26.6805 67.5492 28.2463L68.5162 26.7922L69.6925 27.5644L67.5358 30.8075L67.4546 31.0495L67.3893 31.0278L67.2026 31.3086L66.1494 30.6172L63.1697 29.6304L63.6173 28.2964L66.4997 29.251C65.7132 27.7581 64.7327 27.1476 63.8646 26.9976C62.8485 26.822 61.8029 27.2417 61.0895 27.9879C60.377 28.733 60.0798 29.7078 60.3869 30.5985Z" fill="black"/>
<path d="M88.5993 29.2703C87.8114 28.2041 87.7547 27.5189 85.1738 26.9634C85.1182 26.8797 85.0876 26.8327 85.2262 26.7187C87.049 27.0088 87.8809 27.4895 88.8964 29.1305C88.8233 29.3168 88.7572 29.3444 88.5993 29.2703Z" fill="#1FAFF4"/>
<path d="M88.04 29.4276C87.1871 28.1682 86.3558 27.6478 85.1913 27.6275C85.0905 27.7768 85.1386 27.8346 85.3485 27.9071C86.6632 28.1179 87.0839 28.629 87.8128 29.5674C87.9072 29.6191 87.9572 29.5931 88.04 29.4276Z" fill="#1FAFF4"/>
<path fill-rule="evenodd" clip-rule="evenodd" d="M87.8128 31.2103C87.8128 31.3815 87.7979 31.5493 87.7693 31.7124L87.7779 31.6996V34.0939C87.1746 34.1181 86.8702 34.0564 86.4496 33.6745L86.4653 33.6511C86.0206 33.9316 85.4938 34.0939 84.9292 34.0939C83.3365 34.0939 82.0455 32.8029 82.0455 31.2103C82.0455 29.6176 83.3365 28.3266 84.9292 28.3266C86.5218 28.3266 87.8128 29.6176 87.8128 31.2103ZM84.8942 33.1152C85.9849 33.1152 86.8691 32.2467 86.8691 31.1753C86.8691 30.1039 85.9849 29.2354 84.8942 29.2354C83.8035 29.2354 82.9193 30.1039 82.9193 31.1753C82.9193 32.2467 83.8035 33.1152 84.8942 33.1152Z" fill="#39B6F5"/>
<circle cx="85.4709" cy="30.1791" r="0.349538" fill="#24B0F4"/>
<path d="M86.9914 29.7422C87.0081 29.9363 86.9305 29.9582 86.7642 29.9694C86.3134 29.3885 85.9772 29.151 85.1699 28.9469C85.1234 28.8295 85.1133 28.7664 85.2263 28.6761C86.0791 28.7854 86.4375 29.0716 86.9914 29.7422Z" fill="#FEFEFE"/>
<g filter="url(#filter2_d)">
<path d="M132.944 222.567H147.675V228.334H125.797V184.767H132.944V222.567ZM185.307 210.217C185.307 211.513 185.224 212.683 185.057 213.728H158.666C158.875 216.486 159.899 218.701 161.737 220.373C163.576 222.044 165.833 222.88 168.508 222.88C172.352 222.88 175.069 221.271 176.657 218.053H184.367C183.322 221.229 181.421 223.841 178.663 225.889C175.946 227.895 172.561 228.898 168.508 228.898C165.206 228.898 162.239 228.167 159.606 226.704C157.015 225.199 154.967 223.11 153.463 220.435C152 217.719 151.269 214.585 151.269 211.032C151.269 207.48 151.979 204.367 153.4 201.692C154.863 198.976 156.89 196.886 159.481 195.424C162.114 193.961 165.123 193.23 168.508 193.23C171.767 193.23 174.672 193.94 177.221 195.361C179.77 196.782 181.755 198.788 183.176 201.379C184.597 203.928 185.307 206.874 185.307 210.217ZM177.848 207.961C177.806 205.328 176.866 203.218 175.027 201.629C173.188 200.041 170.911 199.247 168.194 199.247C165.729 199.247 163.618 200.041 161.863 201.629C160.108 203.176 159.063 205.286 158.729 207.961H177.848ZM189.958 210.907C189.958 207.438 190.668 204.367 192.089 201.692C193.552 199.018 195.516 196.949 197.982 195.486C200.489 193.982 203.247 193.23 206.256 193.23C208.973 193.23 211.334 193.773 213.34 194.859C215.388 195.904 217.018 197.221 218.229 198.809V193.794H225.438V228.334H218.229V223.193C217.018 224.823 215.367 226.182 213.277 227.268C211.188 228.355 208.806 228.898 206.131 228.898C203.164 228.898 200.447 228.146 197.982 226.641C195.516 225.095 193.552 222.964 192.089 220.247C190.668 217.489 189.958 214.376 189.958 210.907ZM218.229 211.032C218.229 208.65 217.728 206.582 216.725 204.826C215.764 203.071 214.489 201.734 212.901 200.815C211.313 199.895 209.6 199.435 207.761 199.435C205.922 199.435 204.209 199.895 202.621 200.815C201.033 201.692 199.737 203.009 198.734 204.764C197.773 206.477 197.292 208.525 197.292 210.907C197.292 213.289 197.773 215.379 198.734 217.176C199.737 218.973 201.033 220.352 202.621 221.313C204.25 222.232 205.964 222.692 207.761 222.692C209.6 222.692 211.313 222.232 212.901 221.313C214.489 220.393 215.764 219.056 216.725 217.301C217.728 215.504 218.229 213.414 218.229 211.032ZM241.971 198.809C243.016 197.053 244.395 195.695 246.108 194.734C247.863 193.731 249.932 193.23 252.314 193.23V200.626H250.496C247.696 200.626 245.565 201.337 244.102 202.758C242.681 204.179 241.971 206.644 241.971 210.155V228.334H234.825V193.794H241.971V198.809ZM276.31 193.23C279.026 193.23 281.45 193.794 283.581 194.922C285.754 196.05 287.447 197.722 288.659 199.937C289.871 202.152 290.477 204.826 290.477 207.961V228.334H283.393V209.026C283.393 205.934 282.62 203.573 281.074 201.943C279.527 200.271 277.417 199.435 274.742 199.435C272.068 199.435 269.937 200.271 268.348 201.943C266.802 203.573 266.029 205.934 266.029 209.026V228.334H258.883V193.794H266.029V197.743C267.199 196.322 268.683 195.215 270.48 194.421C272.319 193.627 274.262 193.23 276.31 193.23ZM303.228 189.218C301.932 189.218 300.846 188.779 299.968 187.901C299.091 187.024 298.652 185.937 298.652 184.642C298.652 183.346 299.091 182.259 299.968 181.382C300.846 180.504 301.932 180.065 303.228 180.065C304.482 180.065 305.547 180.504 306.425 181.382C307.302 182.259 307.741 183.346 307.741 184.642C307.741 185.937 307.302 187.024 306.425 187.901C305.547 188.779 304.482 189.218 303.228 189.218ZM306.738 193.794V228.334H299.592V193.794H306.738ZM333.547 193.23C336.264 193.23 338.688 193.794 340.819 194.922C342.992 196.05 344.685 197.722 345.897 199.937C347.109 202.152 347.714 204.826 347.714 207.961V228.334H340.631V209.026C340.631 205.934 339.858 203.573 338.312 201.943C336.765 200.271 334.655 199.435 331.98 199.435C329.306 199.435 327.174 200.271 325.586 201.943C324.04 203.573 323.267 205.934 323.267 209.026V228.334H316.121V193.794H323.267V197.743C324.437 196.322 325.921 195.215 327.718 194.421C329.556 193.627 331.5 193.23 333.547 193.23ZM370.746 193.23C373.421 193.23 375.782 193.773 377.83 194.859C379.919 195.904 381.549 197.221 382.719 198.809V193.794H389.928V228.898C389.928 232.074 389.26 234.895 387.922 237.361C386.585 239.868 384.642 241.832 382.092 243.253C379.585 244.674 376.576 245.384 373.066 245.384C368.385 245.384 364.499 244.277 361.406 242.062C358.313 239.889 356.558 236.922 356.14 233.161H363.224C363.767 234.958 364.916 236.399 366.672 237.486C368.469 238.614 370.6 239.178 373.066 239.178C375.949 239.178 378.269 238.301 380.024 236.546C381.821 234.79 382.719 232.241 382.719 228.898V223.131C381.507 224.761 379.857 226.14 377.767 227.268C375.719 228.355 373.379 228.898 370.746 228.898C367.737 228.898 364.979 228.146 362.472 226.641C360.006 225.095 358.042 222.964 356.579 220.247C355.158 217.489 354.448 214.376 354.448 210.907C354.448 207.438 355.158 204.367 356.579 201.692C358.042 199.018 360.006 196.949 362.472 195.486C364.979 193.982 367.737 193.23 370.746 193.23ZM382.719 211.032C382.719 208.65 382.218 206.582 381.215 204.826C380.254 203.071 378.979 201.734 377.391 200.815C375.803 199.895 374.09 199.435 372.251 199.435C370.412 199.435 368.698 199.895 367.11 200.815C365.522 201.692 364.227 203.009 363.224 204.764C362.263 206.477 361.782 208.525 361.782 210.907C361.782 213.289 362.263 215.379 363.224 217.176C364.227 218.973 365.522 220.352 367.11 221.313C368.74 222.232 370.454 222.692 372.251 222.692C374.09 222.692 375.803 222.232 377.391 221.313C378.979 220.393 380.254 219.056 381.215 217.301C382.218 215.504 382.719 213.414 382.719 211.032ZM419.234 189.218C417.938 189.218 416.852 188.779 415.974 187.901C415.097 187.024 414.658 185.937 414.658 184.642C414.658 183.346 415.097 182.259 415.974 181.382C416.852 180.504 417.938 180.065 419.234 180.065C420.488 180.065 421.553 180.504 422.431 181.382C423.309 182.259 423.747 183.346 423.747 184.642C423.747 185.937 423.309 187.024 422.431 187.901C421.553 188.779 420.488 189.218 419.234 189.218ZM422.744 193.794V228.334H415.598V193.794H422.744ZM444.664 228.898C441.948 228.898 439.503 228.417 437.33 227.456C435.198 226.453 433.506 225.116 432.252 223.444C430.998 221.731 430.33 219.829 430.246 217.74H437.643C437.768 219.202 438.458 220.435 439.712 221.438C441.007 222.399 442.616 222.88 444.539 222.88C446.545 222.88 448.091 222.504 449.177 221.752C450.306 220.958 450.87 219.955 450.87 218.743C450.87 217.447 450.243 216.486 448.989 215.859C447.777 215.232 445.834 214.543 443.159 213.791C440.568 213.08 438.458 212.391 436.828 211.722C435.198 211.053 433.777 210.029 432.566 208.65C431.395 207.271 430.81 205.453 430.81 203.197C430.81 201.358 431.354 199.686 432.44 198.182C433.527 196.635 435.073 195.424 437.079 194.546C439.127 193.668 441.467 193.23 444.1 193.23C448.028 193.23 451.183 194.232 453.565 196.238C455.989 198.203 457.285 200.898 457.452 204.325H450.306C450.18 202.779 449.553 201.546 448.425 200.626C447.297 199.707 445.771 199.247 443.849 199.247C441.968 199.247 440.527 199.603 439.524 200.313C438.521 201.023 438.019 201.964 438.019 203.134C438.019 204.053 438.354 204.826 439.022 205.453C439.691 206.08 440.506 206.582 441.467 206.958C442.428 207.292 443.849 207.731 445.73 208.274C448.237 208.943 450.285 209.632 451.873 210.343C453.503 211.011 454.903 212.014 456.073 213.352C457.243 214.689 457.849 216.465 457.891 218.68C457.891 220.644 457.347 222.399 456.261 223.946C455.174 225.492 453.628 226.704 451.622 227.582C449.658 228.459 447.339 228.898 444.664 228.898Z" fill="black"/>
<path d="M509.412 193.564H501.722V228.334H487.43V193.564H482.248V181.695H487.43V180.358C487.43 174.619 489.074 170.272 492.361 167.319C495.649 164.31 500.468 162.806 506.821 162.806C507.879 162.806 508.659 162.834 509.161 162.889V175.009C506.431 174.842 504.508 175.232 503.394 176.179C502.279 177.126 501.722 178.826 501.722 181.277V181.695H509.412V193.564ZM562.181 181.695V228.334H547.889V221.982C546.44 224.043 544.462 225.715 541.954 226.996C539.503 228.222 536.772 228.835 533.763 228.835C530.197 228.835 527.049 228.055 524.319 226.495C521.588 224.879 519.471 222.567 517.966 219.558C516.462 216.549 515.71 213.01 515.71 208.943V181.695H529.919V207.02C529.919 210.141 530.726 212.565 532.342 214.292C533.958 216.019 536.131 216.883 538.862 216.883C541.648 216.883 543.849 216.019 545.465 214.292C547.081 212.565 547.889 210.141 547.889 207.02V181.695H562.181ZM600.865 181.194C606.326 181.194 610.672 182.977 613.904 186.543C617.191 190.053 618.835 194.901 618.835 201.086V228.334H604.626V203.009C604.626 199.888 603.818 197.464 602.202 195.737C600.586 194.01 598.413 193.146 595.683 193.146C592.952 193.146 590.779 194.01 589.163 195.737C587.548 197.464 586.74 199.888 586.74 203.009V228.334H572.447V181.695H586.74V187.88C588.188 185.819 590.139 184.203 592.59 183.033C595.042 181.807 597.8 181.194 600.865 181.194ZM634.534 228.919C632.416 228.919 630.661 228.278 629.268 226.996C627.931 225.659 627.262 224.015 627.262 222.065C627.262 220.115 627.931 218.499 629.268 217.217C630.661 215.88 632.416 215.211 634.534 215.211C636.596 215.211 638.295 215.88 639.632 217.217C640.97 218.499 641.638 220.115 641.638 222.065C641.638 224.015 640.97 225.659 639.632 226.996C638.295 228.278 636.596 228.919 634.534 228.919Z" fill="#39B6F5"/>
</g>
<defs>
<filter id="filter0_d" x="0.371747" y="0" width="768.257" height="442.67" filterUnits="userSpaceOnUse" color-interpolation-filters="sRGB">
<feFlood flood-opacity="0" result="BackgroundImageFix"/>
<feColorMatrix in="SourceAlpha" type="matrix" values="0 0 0 0 0 0 0 0 0 0 0 0 0 0 0 0 0 0 127 0"/>
<feOffset dy="5.62825"/>
<feGaussianBlur stdDeviation="2.81413"/>
<feColorMatrix type="matrix" values="0 0 0 0 0 0 0 0 0 0 0 0 0 0 0 0 0 0 0.25 0"/>
<feBlend mode="normal" in2="BackgroundImageFix" result="effect1_dropShadow"/>
<feBlend mode="normal" in="SourceGraphic" in2="effect1_dropShadow" result="shape"/>
</filter>
<filter id="filter1_d" x="10.3699" y="9.93387" width="748.26" height="422.802" filterUnits="userSpaceOnUse" color-interpolation-filters="sRGB">
<feFlood flood-opacity="0" result="BackgroundImageFix"/>
<feColorMatrix in="SourceAlpha" type="matrix" values="0 0 0 0 0 0 0 0 0 0 0 0 0 0 0 0 0 0 127 0"/>
<feOffset dy="5.62825"/>
<feGaussianBlur stdDeviation="2.81413"/>
<feColorMatrix type="matrix" values="0 0 0 0 0 0 0 0 0 0 0 0 0 0 0 0 0 0 0.25 0"/>
<feBlend mode="normal" in2="BackgroundImageFix" result="effect1_dropShadow"/>
<feBlend mode="normal" in="SourceGraphic" in2="effect1_dropShadow" result="shape"/>
</filter>
<filter id="filter2_d" x="123.057" y="162.806" width="521.322" height="88.0593" filterUnits="userSpaceOnUse" color-interpolation-filters="sRGB">
<feFlood flood-opacity="0" result="BackgroundImageFix"/>
<feColorMatrix in="SourceAlpha" type="matrix" values="0 0 0 0 0 0 0 0 0 0 0 0 0 0 0 0 0 0 127 0"/>
<feOffset dy="2.74038"/>
<feGaussianBlur stdDeviation="1.37019"/>
<feColorMatrix type="matrix" values="0 0 0 0 0 0 0 0 0 0 0 0 0 0 0 0 0 0 0.25 0"/>
<feBlend mode="normal" in2="BackgroundImageFix" result="effect1_dropShadow"/>
<feBlend mode="normal" in="SourceGraphic" in2="effect1_dropShadow" result="shape"/>
</filter>
</defs>
</svg>
